# xmcd CD database file
#
# Track frame offsets:
#	150
#	13278
#	30002
#	41501
#	59130
#	76381
#	87312
#	100055
#	116136
#	131630
#	145255
#	158062
#
# Disc length: 2305 seconds
#
# Revision: 0
# Processed by: cddbd v1.5.2PL0 Copyright (c) Steve Scherf et al.
# Submitted via: CDex 1.70beta2
#
DISCID=9b08ff0c
DTITLE=Rita Engebretsen og Helge Borglund - Frem fra Glemselen kapittel 14
DYEAR=2005
DGENRE=Schillingsviser
TTITLE0=Helge Borglund - Gamle svarten
TTITLE1=Kirsti Sparboe, gjesteartist - Hjem
TTITLE2=Rita Engebretsen - Ned i dalen
TTITLE3=Helge Borglund - Anna Lovinda
TTITLE4=Rita Engebretsen - Det var en lørdag aften
TTITLE5=Helge Borglund - Jacob Skjærliper
TTITLE6=Helge Borglund - Vi sees igjen
TTITLE7=Kirsti Sparboe, gjesteartist - Nordlandsnetter
TTITLE8=Rita Engebretsen - Farvel, Jimmy, farvel
TTITLE9=Rita Engebretsen - Godnatt lille firbente venn
TTITLE10=Helge Borglund - Der roser aldri dør
TTITLE11=Rita Engebretsen - Lili Marlen
EXTD=YEAR: 2005
EXTT0=
EXTT1=
EXTT2=
EXTT3=
EXTT4=
EXTT5=
EXTT6=
EXTT7=
EXTT8=
EXTT9=
EXTT10=
EXTT11=
PLAYORDER=
